<?xml version="1.0" encoding="UTF-8"?>
<!-- Created with Inkscape (http://www.inkscape.org/) -->
<svg width="1900" height="1900" version="1.1" viewBox="0 0 1900 1900" xmlns="http://www.w3.org/2000/svg" xmlns:cc="http://creativecommons.org/ns#" xmlns:dc="http://purl.org/dc/elements/1.1/" xmlns:rdf="http://www.w3.org/1999/02/22-rdf-syntax-ns#">
 <title>Doomerkat</title>
 <g transform="translate(-435.54 -179.72)">
  <g transform="translate(62.553 192.6)" fill="#e9c6af">
   <path d="m581.01 436.15c-49.482-51.391-55.474-50.611-59.688-48.518-41.081 34.257-23.447 61.614-16.941 73.558 6.1497 11.29 40.369 57.437 82.102 69.008-1.3116-31.885 11.788-76.121-5.4726-94.048z" stroke="#000" stroke-width="1px"/>
   <path d="m778.75 360.35 15.607 42.848 79.21 77.824c-22.775 13.07-42.946 31.838-117.48 14.045 11.577 7.4442 16.483 9.2363 30.026 11.669 55.06 9.8896 94.576 3.5839 129.27-33.176 3.8919-4.1234 6.323-6.5838 10.109-11.494 3.6176-4.6918 5.6224-7.7568 6.1536-10.477 0.40604-2.079 1.5397-8.1663 1.5177-11.254-0.0246-3.4477-0.37726-7.3935-1.6126-10.394-3.912-9.5003-8.0925-18.475-13.324-27.556-7.2955-12.665-14.917-25.539-20.197-40.34l-50.499-44.392c22.559 21.854 34.582 64.731 71.749 102.44l3.1676 12.327-11.606 15.214-44.988-1.884c-23.498-34.992-56.875-50.265-87.11-85.396"/>
   <path d="m861.64 444.77c7e-3 13.179 17.645 29.727 32.571 32.54 16.734 3.326 31.441-13.685 36.357-25.49 2.6472-6.3564 1.8064-15.99-1.5682-22.745-2.6006-5.2059-5.2797-13.518-9.1934-16.592-2.7809-0.78916-10.947-4.6667-7.9071 2.8143 1.9908 4.8991 0.0298 2.4263 4.0856 9.1936 0 0-1.4436-0.60026-4.484-0.0453-3.8189 0.69711-13.544 2.0436-21.345 13.26-5.423 2.0207-14.84 3.1803-20.942 1.0273-5.3673-0.0851-7.8429 1.9634-7.5743 6.0365z"/>
   <path d="m865.86 445.74c6.5834 4.107 13.505 11.008 22.157 13.02 6.4852 1.5086 18.452-4.0283 18.961-6.7495 0.71163-3.8039-4.0193-9.97-5.7371-9.6079-3.0622 0.64558-6.5395 2.2763-11.834 5.4322-3.736 2.4593-4.4927 3.8666-3.6729 4.1742 3.9429 1.4792 6.877-0.47788 10.18-1.177 1.2249 0.23606 1.0543 1.3099 0.24092 2.7696-2.5086 1.4232-5.112 2.2134-9.0353 1.7967-2.332-0.24772-4.5253-0.7165-6.6701-1.5821-5.1062-2.0609-14.59-8.0765-14.59-8.0765z" stroke="#000" stroke-width="1px"/>
   <path d="m914.05 436.27c0.12025 2.9804 1.5548 10.936 3.0468 11.148 1.1954 0.17016 5.7394-2.7185 7.5496-7.0007 0.50964-1.2056 1.5041-2.8019 0.48779-8.4226-0.82147-4.5433-3.5168-8.1919-5.8436-11.905 1.8238 3.5078 3.4964 8.1325 3.9732 10.906 0.44432 2.5849-0.35083 4.9939-2.7542 6.9417 1.3792-1.8757 2.4997-3.8256 2.7516-5.3898 0.27104-1.6831-0.0529-4.1072-0.56177-4.3234-0.36261-0.15403-1.3396 0.22028-2.1526 0.55768-1.0895 0.45209-3.573 2.6148-4.6422 3.6302-0.52022 0.49403-1.8831 3.1478-1.8545 3.8574z"/>
   <g stroke="#000" stroke-width="9">
    <path d="m576.48 520.18c7.0902 9.2005 18.954 19.539 37.519 55.931 5.4907 10.763 18.19 18.68 28.029 14.223 76.575-34.686 155.3-33.653 222.08-68.29 21.681-11.244 57.115-25.311 68.577-38.86 9.988-11.807 11.917-27.939 19.689-41.098"/>
    <path d="m797.06 1152.7c18.467 33.025 48.497 51.433 86.981 59.155 34.378 6.8981 131.71-31.975 182.17-56.96 59.494-29.457 166.55-24.181 202.93-19.449 92.181 11.99 117.52 12.61 157.84 10.79 33.448-1.5105 61.383 0.2227 97.12 1.2832"/>
    <path d="m1377.1 1352.2c28.87-65.59 118.86-63.198 178.38-94.701"/>
   </g>
   <path d="m1099.1 1065c8.1246 1.164 28.812 13.671 33.187 26.344 1.8675 5.4096 0.136 10.793-0.8683 16.182-1.5719-5.2524-3.4841-10.37-6.7193-14.649-5.5162-7.2962-13.142-10.317-21.131-11.628z"/>
   <path d="m1105.1 1086.4c13.097 4.8929 18.362 11.094 24.729 21.151 1.9023 3.005 0.7447 7.9928-0.3978 9.957-2.1685-4.928-6.9093-9.8549-11.872-12.837-3.6537-2.1952-7.7536-4.8758-13.747-7.1006z"/>
   <path d="m1101.8 1099.6c8.4436 3.8066 16.797 7.8251 22.844 14.459 1.8098 1.9855 1.7212 4.5438 1.7368 6.7341 0.01 1.296-0.045 2.5802-0.5321 3.6883-2.6276-3.1628-5.5306-5.948-10.299-9.4992-5.3244-3.965-10.869-6.7009-16.389-9.8406z"/>
   <path d="m1096.8 1106.9c7.6919 4.1747 14.26 8.0348 19.227 13.134 3.2695 3.3562 2.2428 4.7206 2.2718 6.5722 0.029 1.8431-0.7018 2.5993-1.4097 3.2121-1.5299-4.6467-8.2866-10.549-23.684-18.854z"/>
   <path d="m1821.2 1190.1c17.414 2.8677 21.974 9.2521 25.078 16.034-8.5208-4.4282-17.189-5.1549-26.07-0.5352z"/>
   <path d="m1821.9 1175.3c8.2639-2.6606 16.739 0.4119 25.24 4.1901-2.3837-13.098-16.626-13.58-28.99-16.061z"/>
   <path d="m1806.1 1149.1c-2.4953-3.7753 9.2017-5.0601 20.944-6.3369-10.297-11.932-18.322-8.3444-26.766-7.6187z"/>
   <path d="m1767.4 1126.2c-1.3284-9.8612 12.594-15.018 30.198-19.04-25.163-4.4276-35.276-2.145-43.65 0.9134 11.092 2.6042 23.507 4.52 13.452 18.127z"/>
   <path d="m1972.6 1583.1c5.6952-26.218-3.057-55.919-14.981-86.385 43.197 27.146 69.607 32.666 92.717 33.935l98.164 68.422 43.582 44.276 13.712 42.885-35.329 3.5442-54.638-12.357-63.282-37.166z"/>
   <path d="m1177.1 1078.2c17.878 15.109 12.216 5.289 18.432 21.797 2.1901 5.8158 3.143 9.4778 2.4113 12.351-0.5023 1.9723-1.0269 5.138-4.229 7.5344-1.4889-9.0936-8.1259-18.953-18.58-28.113-6.7562-5.9198-12.708-6.7466-19.45-12.864 21.416-0.7064 19.874 3.2919 21.416-0.7064z"/>
   <path d="m1195.2 1069.5s6.0967 6.9595 7.805 20.634c0.8784 7.0318 0.1092 14.283-1.3554 21.216-0.4273 2.0229-2.1417 5.8212-2.1417 5.8212-6.2842-37.375-3.7332-27.221-11.591-43.352 3.4398-2.7894 1.5152-3.9892 7.2833-4.3194z"/>
   <path d="m1198.2 1061c2.0079 6.7588 3.4991 12.154 4.2711 25.117 0.097-0.225 4.3716-7.674 4.6535-10.478 0.5404-5.3757 0.3256-10.915-0.8653-16.185-1.4591-6.4569-7.5701-18.36-7.5701-18.36z"/>
   <path d="m841.98 743.39c28.601 78.344-4.485 118.8-6.8782 178.1 0.25028 12.805-0.0419 25.675 32.767 34.577 64.189-1.7541 113.75-0.48236 150.13 12.498 45.978 16.406 58.821 58.205 76.322 89.545 8.5727 15.352 15.837 30.899 4.4714 44.981-11.507 14.258-48.289 19.148-61.086 6.9595-26.976-25.692-30.356-31.844-39.303-40.028-15.61-14.28-30.353-17.284-46.437-17.573-40.273-0.7238-80.81 1.7961-119.13 18.245-24.068 14.063-48.688 30.389-75.284 25.292-24.453-4.687-34.744-22.936-42.621-40.11" stroke="#000" stroke-width="9"/>
   <path d="m855.04 330.32-20.743-17.346c-6.3428-5.304-3.9405-18.97 1.4804-30.732 5.4453-11.814 15.467-22.311 30.973-35.588 3.4273-2.9345 11.198-5.7676 17.401-4.201 7.2848 1.8397 7.5746 7.1986 9.5395 10.818 4.4741 8.2422 4.5244 17.06 5.3752 25.427 1.4003 13.77-3.4188 16.763-5.1282 25.144z"/>
   <path d="m778.75 360.35c-2.5333-9.4386 7.285-19.598-8.1061-28.591-22.858-13.356-72.873-11.561-104.58 3.9871-22.956 11.256-47.067 23.289-58.973 37.423-6.5356 7.7585-10.193 15.246-13.486 23.102-3.6276 8.6558 0.62143 6.2342 21.241 22.27 4.5803 3.5621 8.6766 8.4315 14.257 8.1915 31.853-1.3696 30.136-0.83453 44.669-1.1821z"/>
   <path d="m794.36 403.19c2.8682-56.953-35.132-69.442-89.807-63.787-47.516 3.856-63.597 30.862-85.52 53.566 8.8678 19.543 29.323 32.711 65.516 37.22 37.604 21.63 59.771 17.247 80.164-11.927 5.4176-17.847-0.34692-28.742 29.647-15.071z" stroke="#000" stroke-width="1px"/>
   <path d="m869.23 259.69c-20.795 16.899-31.237 33.632-28.616 48.881 0.67887 3.95-3.6367 11.839 26.947 38.358 8.9298 5.0515 19.911 18.918 31.356 18.116-1.5355-9.1982-4.3562-14.207-3.8329-22.015 0.2146-3.2018 7.5043 0.8153 9.9679-3.3618 4.9198-8.3416-0.86602-30.183-6.4051-44.817-6.0199-17.509-4.0998-55.734-29.417-35.161z" stroke="#000" stroke-width="1px"/>
   <path d="m676.85 379.76c37.98 31.77 53.192 8.7968 73.451-2.0414 0 0-15.847 28.335-40.249 27.866-30.598-0.58754-36.294-25.626-33.202-25.825z"/>
   <path d="m712.45 350.26c-12.513 3.602-23.071 18.216-20.958 26.179 3.6639 13.807 13.31 17.734 22.267 17.686 12.569-0.0684 27.86-14.011 28.008-23.384 0.0784-4.9662-1.3762-10.411-3.6028-13.539-5.33-7.4889-15.969-9.7471-25.715-6.9416z"/>
   <path d="m710.35 358.93c-3.8436-0.0385-9.2486 2.0823-9.9281 5.8655-1.0611 5.9077 5.4468 12.879 11.347 13.982 6.0174 1.1252 15.839-2.9939 15.944-9.1147 0.11678-6.803-10.559-10.665-17.362-10.733z"/>
   <path d="m720.25 359.14c-3.5371-0.32498-10.463 1.8059-13.27 3.9405-2.7661 2.103-2.7966 4.8658-3.0956 7.0181-0.6025 4.337 7.3698 12.869 15.807 10.075s11.011-7.7187 11.003-11.391c-8e-3 -3.6726-3.4224-8.9966-10.444-9.6417z"/>
   <path d="m715.61 359.6c-3.2425 0.71108-6.8024 2.0914-8.627 3.4785-2.7661 2.103-2.7967 4.8672-3.0957 7.0195-0.26937 1.939 1.1774 4.7144 3.6113 6.9434 1.3829 0.85581 2.8459 1.4674 4.2734 1.7344 6.0174 1.1252 15.838-2.9925 15.943-9.1133 0.0893-5.2014-6.1311-8.6809-12.105-10.062z"/>
   <path d="m874.68 289.68c9.9894 23.444 1.5418 31.571-2.6852 43.372 12.017-7.7617 14.095-15.178 14.231-23.285 0.10153-6.0328-4.5414-15.053-11.546-20.087z"/>
   <path d="m857.19 285.49c-2.917 1.7173-8.2931 6.4523-9.9846 12.55-1.364 4.9172-0.74473 11.044 1.5045 15.625 2.5569 5.2068 7.8217 10.292 13.445 11.716 3.8677 0.98004 8.6474-0.34984 11.571-3.0654 3.8611-3.5868 5.0653-9.6745 5.162-14.944 0.12255-6.6766-3.8905-15.653-6.2207-18.311-5.4361-6.2006-11.523-5.8988-15.476-3.5711z"/>
   <path d="m847.48 305.16c-0.18884-5.7815 7.1868-11.268 12.838-12.503 4.8613-1.0628 10.573 0.83407 12.131 5.5598 1.4061 4.2635-1.943 8.1362-5.3308 11.082-2.6625 2.315-9.4052 4.2026-12.855 3.4633-3.96-0.84864-6.6511-3.554-6.7833-7.6017z"/>
   <path d="m860.34 315.99c1.6108-0.64206 9.044-3.9065 9.9408-8.7986 0.80167-4.3736 1.4637-9.3263-2.1038-11.98-3.0116-2.2406-6.4075-2.0531-10.922 0.0808-1.7771 0.83993-5.1479 4.2228-6.145 7.6369-1.227 4.2017-0.54442 8.0273 0.76046 9.6744 1.4554 1.8371 4.9745 4.7802 8.4699 3.387z"/>
   <path d="m863.28 293.61c-1.7898 0.0335-3.768 0.61467-6.0254 1.6816-1.7771 0.83993-5.1475 4.2226-6.1445 7.6367-1.0285 3.5219-0.71316 6.7732 0.18359 8.7051 0.87409 0.50822 1.8692 0.89019 2.9648 1.125 3.4499 0.73934 10.191-1.1478 12.854-3.4629 1.2153-1.0567 2.4226-2.2353 3.4102-3.5059 0.65011-3.993 0.84558-8.2059-2.3457-10.58-1.5058-1.1203-3.1067-1.6331-4.8965-1.5996z"/>
   <path d="m664.32 215.56c-103.9 27.735-138.89 87.659-144.19 161.45 7.9621 63.353 21.786 126.71 39.129 190.06-43.501 150.24-15.575 123-66.148 218.64-100.94 190.89-36.239 446.15 16.452 507.18 160.08 179.79 300.95 186.62 436.58 146.27 115.35 146.1 193.47 33.122 274.59 10.621 119.78-33.228 158.61-84.528 156.39-97.579 430.25 67.688 493.08 157.29 613.93 243.43 69.361 43.438 134.6 111.3 214.79 90.577 1.6937-27.085-21.427-56.52-57.294-87.161-57.158-27.704-130.27-93.318-202.3-156.37-290.96-176.1-315.41-162.53-390.75-185.17 39.654-26.362 83.659-21.125 128.8-7.6264 18.434 4.1526 35.91 11.793 59.903-4.28l34.757-4.4715c36.072-4.1229 54.939-14.547 40.3-37.243-0.4649-16.662 18.397-37.446-21.234-45.753 14.809-2.1155 10.116-11.942 2.2676-23.015l-44.491 4.8469c10.871-14.216 32.623-31.221-8.5674-32.095-37.122 19.906-79.135 8.8238-114.51 31.532-34.362 4.1361-61.103 14.147-108.63 8.1382-23.275-148.27-150.75-263.94-336.83-305.22-24.701-41.193-57.524-82.76-122.13-125.79 5.5479-68.673 2.3205-138.62-108.17-224.1l-4.599-50.34c21.472-28.254 30.305-60.386-8.7573-107.6-9.9711-82.307-60.556-124.31-119.87-140.31-72.997-19.701-123.08-9.1683-159.43 21.392z" stroke="#000" stroke-width="9"/>
  </g>
  <g>
   <g transform="translate(62.553 192.6)">
    <path d="m581.01 436.15c-49.482-51.391-55.474-50.611-59.688-48.518-41.081 34.257-23.447 61.614-16.941 73.558 6.1497 11.29 40.369 57.437 82.102 69.008-1.3116-31.885 11.788-76.121-5.4726-94.048z" stroke="#000" stroke-width="1px"/>
    <path d="m778.75 360.35 15.607 42.848 79.21 77.824c-22.775 13.07-42.946 31.838-117.48 14.045 11.577 7.4442 16.483 9.2363 30.026 11.669 55.06 9.8896 94.576 3.5839 129.27-33.176 3.8919-4.1234 6.323-6.5838 10.109-11.494 3.6176-4.6918 5.6224-7.7568 6.1536-10.477 0.40604-2.079 1.5397-8.1663 1.5177-11.254-0.0246-3.4477-0.37726-7.3935-1.6126-10.394-3.912-9.5003-8.0925-18.475-13.324-27.556-7.2955-12.665-14.917-25.539-20.197-40.34l-50.499-44.392c22.559 21.854 34.582 64.731 71.749 102.44l3.1676 12.327-11.606 15.214-44.988-1.884c-23.498-34.992-56.875-50.265-87.11-85.396"/>
    <path d="m861.64 444.77c7e-3 13.179 17.645 29.727 32.571 32.54 16.734 3.326 31.441-13.685 36.357-25.49 2.6472-6.3564 1.8064-15.99-1.5682-22.745-2.6006-5.2059-5.2797-13.518-9.1934-16.592-2.7809-0.78916-10.947-4.6667-7.9071 2.8143 1.9908 4.8991 0.0298 2.4263 4.0856 9.1936 0 0-1.4436-0.60026-4.484-0.0453-3.8189 0.69711-13.544 2.0436-21.345 13.26-5.423 2.0207-14.84 3.1803-20.942 1.0273-5.3673-0.0851-7.8429 1.9634-7.5743 6.0365z" fill="#4d4d4d"/>
    <path d="m865.86 445.74c6.5834 4.107 13.505 11.008 22.157 13.02 6.4852 1.5086 18.452-4.0283 18.961-6.7495 0.71163-3.8039-4.0193-9.97-5.7371-9.6079-3.0622 0.64558-6.5395 2.2763-11.834 5.4322-3.736 2.4593-4.4927 3.8666-3.6729 4.1742 3.9429 1.4792 6.877-0.47788 10.18-1.177 1.2249 0.23606 1.0543 1.3099 0.24092 2.7696-2.5086 1.4232-5.112 2.2134-9.0353 1.7967-2.332-0.24772-4.5253-0.7165-6.6701-1.5821-5.1062-2.0609-14.59-8.0765-14.59-8.0765z" stroke="#000" stroke-width="1px"/>
    <path d="m914.05 436.27c0.12025 2.9804 1.5548 10.936 3.0468 11.148 1.1954 0.17016 5.7394-2.7185 7.5496-7.0007 0.50964-1.2056 1.5041-2.8019 0.48779-8.4226-0.82147-4.5433-3.5168-8.1919-5.8436-11.905 1.8238 3.5078 3.4964 8.1325 3.9732 10.906 0.44432 2.5849-0.35083 4.9939-2.7542 6.9417 1.3792-1.8757 2.4997-3.8256 2.7516-5.3898 0.27104-1.6831-0.0529-4.1072-0.56177-4.3234-0.36261-0.15403-1.3396 0.22028-2.1526 0.55768-1.0895 0.45209-3.573 2.6148-4.6422 3.6302-0.52022 0.49403-1.8831 3.1478-1.8545 3.8574z"/>
    <g fill="none" stroke="#000" stroke-width="9">
     <path d="m576.48 520.18c7.0902 9.2005 18.954 19.539 37.519 55.931 5.4907 10.763 18.19 18.68 28.029 14.223 76.575-34.686 155.3-33.653 222.08-68.29 21.681-11.244 57.115-25.311 68.577-38.86 9.988-11.807 11.917-27.939 19.689-41.098"/>
     <path d="m797.06 1152.7c18.467 33.025 48.497 51.433 86.981 59.155 34.378 6.8981 131.71-31.975 182.17-56.96 59.494-29.457 166.55-24.181 202.93-19.449 92.181 11.99 117.52 12.61 157.84 10.79 33.448-1.5105 61.383 0.2227 97.12 1.2832"/>
     <path d="m1377.1 1352.2c28.87-65.59 118.86-63.198 178.38-94.701"/>
    </g>
    <g>
     <path d="m1099.1 1065c8.1246 1.164 28.812 13.671 33.187 26.344 1.8675 5.4096 0.136 10.793-0.8683 16.182-1.5719-5.2524-3.4841-10.37-6.7193-14.649-5.5162-7.2962-13.142-10.317-21.131-11.628z"/>
     <path d="m1105.1 1086.4c13.097 4.8929 18.362 11.094 24.729 21.151 1.9023 3.005 0.7447 7.9928-0.3978 9.957-2.1685-4.928-6.9093-9.8549-11.872-12.837-3.6537-2.1952-7.7536-4.8758-13.747-7.1006z"/>
     <path d="m1101.8 1099.6c8.4436 3.8066 16.797 7.8251 22.844 14.459 1.8098 1.9855 1.7212 4.5438 1.7368 6.7341 0.01 1.296-0.045 2.5802-0.5321 3.6883-2.6276-3.1628-5.5306-5.948-10.299-9.4992-5.3244-3.965-10.869-6.7009-16.389-9.8406z"/>
     <path d="m1096.8 1106.9c7.6919 4.1747 14.26 8.0348 19.227 13.134 3.2695 3.3562 2.2428 4.7206 2.2718 6.5722 0.029 1.8431-0.7018 2.5993-1.4097 3.2121-1.5299-4.6467-8.2866-10.549-23.684-18.854z"/>
     <path d="m1821.2 1190.1c17.414 2.8677 21.974 9.2521 25.078 16.034-8.5208-4.4282-17.189-5.1549-26.07-0.5352z"/>
     <path d="m1821.9 1175.3c8.2639-2.6606 16.739 0.4119 25.24 4.1901-2.3837-13.098-16.626-13.58-28.99-16.061z"/>
     <path d="m1806.1 1149.1c-2.4953-3.7753 9.2017-5.0601 20.944-6.3369-10.297-11.932-18.322-8.3444-26.766-7.6187z"/>
     <path d="m1767.4 1126.2c-1.3284-9.8612 12.594-15.018 30.198-19.04-25.163-4.4276-35.276-2.145-43.65 0.9134 11.092 2.6042 23.507 4.52 13.452 18.127z"/>
    </g>
    <path d="m1972.6 1583.1c5.6952-26.218-3.057-55.919-14.981-86.385 43.197 27.146 69.607 32.666 92.717 33.935l98.164 68.422 43.582 44.276 13.712 42.885-35.329 3.5442-54.638-12.357-63.282-37.166z" fill="#666"/>
    <g>
     <path d="m1177.1 1078.2c17.878 15.109 12.216 5.289 18.432 21.797 2.1901 5.8158 3.143 9.4778 2.4113 12.351-0.5023 1.9723-1.0269 5.138-4.229 7.5344-1.4889-9.0936-8.1259-18.953-18.58-28.113-6.7562-5.9198-12.708-6.7466-19.45-12.864 21.416-0.7064 19.874 3.2919 21.416-0.7064z"/>
     <path d="m1195.2 1069.5s6.0967 6.9595 7.805 20.634c0.8784 7.0318 0.1092 14.283-1.3554 21.216-0.4273 2.0229-2.1417 5.8212-2.1417 5.8212-6.2842-37.375-3.7332-27.221-11.591-43.352 3.4398-2.7894 1.5152-3.9892 7.2833-4.3194z"/>
     <path d="m1198.2 1061c2.0079 6.7588 3.4991 12.154 4.2711 25.117 0.097-0.225 4.3716-7.674 4.6535-10.478 0.5404-5.3757 0.3256-10.915-0.8653-16.185-1.4591-6.4569-7.5701-18.36-7.5701-18.36z"/>
    </g>
    <path d="m956.98 492.43c8.0916 39.26 20.262 67.588 18.84 132.35 21.935 24.533 35.656 55.12 36.543 92.572 30.048 53.675 29.147 85.815 30.358 119.42 26.067 17.65 67.126 55.269 73.036 84.166 6.7072 32.793 15.125 63.659 4.483 128.32-2.5723 15.628 13.155 28.79 26.748 28.78 23.148-0.016 58.581 8.977 51.74-36.929-6.0867-26.487 4.287-35.734-8.7979-67.344 8.5173-29.896 9.5273-70.909-2.6504-131.45" fill="none" stroke="#000" stroke-width="9"/>
    <path d="m841.98 743.39c28.601 78.344-4.485 118.8-6.8782 178.1 0.25028 12.805-0.0419 25.675 32.767 34.577 64.189-1.7541 113.75-0.48236 150.13 12.498 45.978 16.406 58.821 58.205 76.322 89.545 8.5727 15.352 15.837 30.899 4.4714 44.981-11.507 14.258-48.289 19.148-61.086 6.9595-26.976-25.692-30.356-31.844-39.303-40.028-15.61-14.28-30.353-17.284-46.437-17.573-40.273-0.7238-80.81 1.7961-119.13 18.245-24.068 14.063-48.688 30.389-75.284 25.292-24.453-4.687-34.744-22.936-42.621-40.11" fill="none" stroke="#000" stroke-width="9"/>
    <path d="m855.04 330.32-20.743-17.346c-6.3428-5.304-3.9405-18.97 1.4804-30.732 5.4453-11.814 15.467-22.311 30.973-35.588 3.4273-2.9345 11.198-5.7676 17.401-4.201 7.2848 1.8397 7.5746 7.1986 9.5395 10.818 4.4741 8.2422 4.5244 17.06 5.3752 25.427 1.4003 13.77-3.4188 16.763-5.1282 25.144z" fill="#808080"/>
    <path d="m778.75 360.35c-2.5333-9.4386 7.285-19.598-8.1061-28.591-22.858-13.356-72.873-11.561-104.58 3.9871-22.956 11.256-47.067 23.289-58.973 37.423-6.5356 7.7585-10.193 15.246-13.486 23.102-3.6276 8.6558 0.62143 6.2342 21.241 22.27 4.5803 3.5621 8.6766 8.4315 14.257 8.1915 31.853-1.3696 30.136-0.83453 44.669-1.1821z" fill="#808080"/>
    <path d="m794.36 403.19c2.8682-56.953-35.132-69.442-89.807-63.787-47.516 3.856-63.597 30.862-85.52 53.566 8.8678 19.543 29.323 32.711 65.516 37.22 37.604 21.63 59.771 17.247 80.164-11.927 5.4176-17.847-0.34692-28.742 29.647-15.071z" stroke="#000" stroke-width="1px"/>
    <path d="m869.23 259.69c-20.795 16.899-31.237 33.632-28.616 48.881 0.67887 3.95-3.6367 11.839 26.947 38.358 8.9298 5.0515 19.911 18.918 31.356 18.116-1.5355-9.1982-4.3562-14.207-3.8329-22.015 0.2146-3.2018 7.5043 0.8153 9.9679-3.3618 4.9198-8.3416-0.86602-30.183-6.4051-44.817-6.0199-17.509-4.0998-55.734-29.417-35.161z" stroke="#000" stroke-width="1px"/>
    <path d="m676.85 379.76c37.98 31.77 53.192 8.7968 73.451-2.0414 0 0-15.847 28.335-40.249 27.866-30.598-0.58754-36.294-25.626-33.202-25.825z" fill="#999"/>
    <path d="m712.45 350.26c-12.513 3.602-23.071 18.216-20.958 26.179 3.6639 13.807 13.31 17.734 22.267 17.686 12.569-0.0684 27.86-14.011 28.008-23.384 0.0784-4.9662-1.3762-10.411-3.6028-13.539-5.33-7.4889-15.969-9.7471-25.715-6.9416z" fill="#a00"/>
    <path d="m710.35 358.93c-3.8436-0.0385-9.2486 2.0823-9.9281 5.8655-1.0611 5.9077 5.4468 12.879 11.347 13.982 6.0174 1.1252 15.839-2.9939 15.944-9.1147 0.11678-6.803-10.559-10.665-17.362-10.733z" fill="#ff2a2a"/>
    <path d="m720.25 359.14c-3.5371-0.32498-10.463 1.8059-13.27 3.9405-2.7661 2.103-2.7966 4.8658-3.0956 7.0181-0.6025 4.337 7.3698 12.869 15.807 10.075s11.011-7.7187 11.003-11.391c-8e-3 -3.6726-3.4224-8.9966-10.444-9.6417z"/>
    <path d="m715.61 359.6c-3.2425 0.71108-6.8024 2.0914-8.627 3.4785-2.7661 2.103-2.7967 4.8672-3.0957 7.0195-0.26937 1.939 1.1774 4.7144 3.6113 6.9434 1.3829 0.85581 2.8459 1.4674 4.2734 1.7344 6.0174 1.1252 15.838-2.9925 15.943-9.1133 0.0893-5.2014-6.1311-8.6809-12.105-10.062z" fill="#1a1a1a"/>
    <path d="m874.68 289.68c9.9894 23.444 1.5418 31.571-2.6852 43.372 12.017-7.7617 14.095-15.178 14.231-23.285 0.10153-6.0328-4.5414-15.053-11.546-20.087z" fill="#999"/>
    <path d="m857.19 285.49c-2.917 1.7173-8.2931 6.4523-9.9846 12.55-1.364 4.9172-0.74473 11.044 1.5045 15.625 2.5569 5.2068 7.8217 10.292 13.445 11.716 3.8677 0.98004 8.6474-0.34984 11.571-3.0654 3.8611-3.5868 5.0653-9.6745 5.162-14.944 0.12255-6.6766-3.8905-15.653-6.2207-18.311-5.4361-6.2006-11.523-5.8988-15.476-3.5711z" fill="#a00"/>
    <path d="m847.48 305.16c-0.18884-5.7815 7.1868-11.268 12.838-12.503 4.8613-1.0628 10.573 0.83407 12.131 5.5598 1.4061 4.2635-1.943 8.1362-5.3308 11.082-2.6625 2.315-9.4052 4.2026-12.855 3.4633-3.96-0.84864-6.6511-3.554-6.7833-7.6017z" fill="#ff2a2a"/>
    <path d="m860.34 315.99c1.6108-0.64206 9.044-3.9065 9.9408-8.7986 0.80167-4.3736 1.4637-9.3263-2.1038-11.98-3.0116-2.2406-6.4075-2.0531-10.922 0.0808-1.7771 0.83993-5.1479 4.2228-6.145 7.6369-1.227 4.2017-0.54442 8.0273 0.76046 9.6744 1.4554 1.8371 4.9745 4.7802 8.4699 3.387z"/>
    <path d="m863.28 293.61c-1.7898 0.0335-3.768 0.61467-6.0254 1.6816-1.7771 0.83993-5.1475 4.2226-6.1445 7.6367-1.0285 3.5219-0.71316 6.7732 0.18359 8.7051 0.87409 0.50822 1.8692 0.89019 2.9648 1.125 3.4499 0.73934 10.191-1.1478 12.854-3.4629 1.2153-1.0567 2.4226-2.2353 3.4102-3.5059 0.65011-3.993 0.84558-8.2059-2.3457-10.58-1.5058-1.1203-3.1067-1.6331-4.8965-1.5996z" fill="#1a1a1a"/>
    <path d="m664.32 215.56c-103.9 27.735-138.89 87.659-144.19 161.45 7.9621 63.353 21.786 126.71 39.129 190.06-43.501 150.24-15.575 123-66.148 218.64-100.94 190.89-36.239 446.15 16.452 507.18 160.08 179.79 300.95 186.62 436.58 146.27 115.35 146.1 193.47 33.122 274.59 10.621 119.78-33.228 158.61-84.528 156.39-97.579 430.25 67.688 493.08 157.29 613.93 243.43 69.361 43.438 134.6 111.3 214.79 90.577 1.6937-27.085-21.427-56.52-57.294-87.161-57.158-27.704-130.27-93.318-202.3-156.37-290.96-176.1-315.41-162.53-390.75-185.17 39.654-26.362 83.659-21.125 128.8-7.6264 18.434 4.1526 35.91 11.793 59.903-4.28l34.757-4.4715c36.072-4.1229 54.939-14.547 40.3-37.243-0.4649-16.662 18.397-37.446-21.234-45.753 14.809-2.1155 10.116-11.942 2.2676-23.015l-44.491 4.8469c10.871-14.216 32.623-31.221-8.5674-32.095-37.122 19.906-79.135 8.8238-114.51 31.532-34.362 4.1361-61.103 14.147-108.63 8.1382-23.275-148.27-150.75-263.94-336.83-305.22-24.701-41.193-57.524-82.76-122.13-125.79 5.5479-68.673 2.3205-138.62-108.17-224.1l-4.599-50.34c21.472-28.254 30.305-60.386-8.7573-107.6-9.9711-82.307-60.556-124.31-119.87-140.31-72.997-19.701-123.08-9.1683-159.43 21.392z" fill="none" stroke="#000" stroke-width="9"/>
   </g>
  </g>
 </g>
 <metadata>
  <rdf:RDF>
   <cc:Work rdf:about="">
    <cc:license rdf:resource="http://creativecommons.org/licenses/by-sa/4.0/"/>
    <dc:creator>
     <cc:Agent>
      <dc:title>Remix: Malte J. Ziebarth, original by: Hans Hillewaert</dc:title>
     </cc:Agent>
    </dc:creator>
    <dc:title>Doomerkat</dc:title>
    <dc:description>This remix is based on a work by Hans Hillewaert licensed under CC-BY-SA 4.0:
https://commons.wikimedia.org/wiki/File:Meerkat_(Suricata_suricatta).jpg</dc:description>
   </cc:Work>
   <cc:License rdf:about="http://creativecommons.org/licenses/by-sa/4.0/">
    <cc:permits rdf:resource="http://creativecommons.org/ns#Reproduction"/>
    <cc:permits rdf:resource="http://creativecommons.org/ns#Distribution"/>
    <cc:requires rdf:resource="http://creativecommons.org/ns#Notice"/>
    <cc:requires rdf:resource="http://creativecommons.org/ns#Attribution"/>
    <cc:permits rdf:resource="http://creativecommons.org/ns#DerivativeWorks"/>
    <cc:requires rdf:resource="http://creativecommons.org/ns#ShareAlike"/>
   </cc:License>
  </rdf:RDF>
 </metadata>
</svg>
